<svg width="32" height="32" viewBox="0 0 32 32" fill="none" xmlns="http://www.w3.org/2000/svg">
<path d="M31.9619 23.0376C31.961 23.0328 31.9602 23.0281 31.9594 23.0234L30.591 15.53C30.3609 14.1722 29.196 13.1875 27.818 13.1875H22.5564V12.1875C22.5564 9.567 21.0185 7.30069 18.7925 6.24963C19.3875 5.58569 19.7502 4.7095 19.7502 3.75C19.7502 1.68225 18.0679 0 16.0002 0C13.9324 0 12.2502 1.68225 12.2502 3.75C12.2502 4.70956 12.6128 5.58575 13.2078 6.24963C10.9818 7.30069 9.43766 9.567 9.43766 12.1875V13.1875H4.18228C2.80447 13.1875 1.6396 14.1721 1.40941 15.5297L0.0408451 23.0233C0.0399701 23.0281 0.0391576 23.0328 0.0383451 23.0376C-0.229405 24.6439 0.974595 26.1398 2.59553 26.2981C2.17435 27.1718 1.93772 28.1523 1.93772 29.1875V31.0625C1.93772 31.5802 2.35747 32 2.87522 32H14.1252C14.643 32 15.0565 31.5802 15.0565 31.0625V29.1875C15.0565 28.1579 14.8288 27.1763 14.412 26.3062H17.5885C17.1716 27.1763 16.9377 28.1579 16.9377 29.1875V31.0625C16.9377 31.5802 17.3575 32 17.8752 32H29.1252C29.643 32 30.0565 31.5802 30.0565 31.0625V29.1875C30.0565 28.1523 29.8261 27.1718 29.4049 26.2981C31.0257 26.1397 32.2295 24.6437 31.9619 23.0376ZM16.0002 1.875C17.034 1.875 17.8752 2.71613 17.8752 3.75C17.8752 4.78387 17.034 5.625 16.0002 5.625C14.9663 5.625 14.1252 4.78387 14.1252 3.75C14.1252 2.71613 14.9663 1.875 16.0002 1.875ZM11.3065 12.1875C11.3065 9.60281 13.4155 7.5 16.0002 7.5C18.5849 7.5 20.6877 9.60281 20.6877 12.1875V13.1875H11.3065V12.1875ZM13.1877 30.125H3.80641V29.1875C3.80641 26.5683 5.91547 24.4375 8.50016 24.4375C11.0848 24.4375 13.1877 26.5683 13.1877 29.1875V30.125ZM6.62516 20.6875C6.62516 19.6536 7.46629 18.8125 8.50016 18.8125C9.53404 18.8125 10.3752 19.6536 10.3752 20.6875C10.3752 21.7214 9.53404 22.5625 8.50016 22.5625C7.46629 22.5625 6.62516 21.7214 6.62516 20.6875ZM28.1877 30.125H18.8064V29.1875C18.8064 26.5683 20.9155 24.4375 23.5002 24.4375C26.0849 24.4375 28.1877 26.5683 28.1877 29.1875V30.125ZM21.6252 20.6875C21.6252 19.6536 22.4663 18.8125 23.5002 18.8125C24.534 18.8125 25.3752 19.6536 25.3752 20.6875C25.3752 21.7214 24.534 22.5625 23.5002 22.5625C22.4663 22.5625 21.6252 21.7214 21.6252 20.6875ZM29.1251 24.4375H28.0698C27.5513 23.929 26.9502 23.5061 26.2889 23.1914C26.886 22.5269 27.2501 21.6491 27.2501 20.6875C27.2501 18.6198 25.5679 16.9375 23.5001 16.9375C21.4324 16.9375 19.7501 18.6198 19.7501 20.6875C19.7501 21.6491 20.1142 22.5269 20.7114 23.1914C20.05 23.5061 19.4489 23.929 18.9304 24.4375H13.0697C12.5512 23.929 11.95 23.5061 11.2887 23.1914C11.8859 22.5269 12.25 21.6491 12.25 20.6875C12.25 18.6198 10.5677 16.9375 8.49997 16.9375C6.43222 16.9375 4.74997 18.6198 4.74997 20.6875C4.74997 21.6491 5.1141 22.5269 5.71122 23.1914C5.05016 23.5061 4.44903 23.929 3.93053 24.4375H2.8751C2.28635 24.4375 1.79772 23.9102 1.88685 23.3519L3.25503 15.8602C3.25591 15.8554 3.25672 15.8507 3.25753 15.8459C3.33322 15.3919 3.7221 15.0625 4.18228 15.0625C5.13003 15.0625 27.334 15.0625 27.818 15.0625C28.2782 15.0625 28.6672 15.3919 28.7428 15.8459C28.7436 15.8506 28.7444 15.8554 28.7453 15.8601L30.1132 23.3516C30.2025 23.9096 29.7143 24.4375 29.1251 24.4375Z" fill="#555555"/>
</svg>
