<svg width="24" height="24" viewBox="0 0 24 24" fill="none" xmlns="http://www.w3.org/2000/svg">
<path d="M20.1881 14.1971C18.2107 13.3592 15.6645 12.8596 12.9375 12.7662V8.46464L19.459 5.25056C19.7792 5.09273 19.982 4.76672 19.982 4.40967C19.982 4.05262 19.7792 3.72661 19.459 3.56878L12.4144 0.0969342C11.7929 -0.209253 11.0625 0.243325 11.0625 0.937825C11.0625 0.970309 11.0625 12.2579 11.0625 12.7662C8.33545 12.8596 5.7893 13.3592 3.81187 14.1971C1.35375 15.2386 0 16.7223 0 18.3747C0 20.0272 1.35375 21.5108 3.81187 22.5524C6.01434 23.4856 8.92228 23.9995 12 23.9995C15.0777 23.9995 17.9857 23.4856 20.1881 22.5524C22.6462 21.5108 24 20.0272 24 18.3747C24 16.7223 22.6462 15.2386 20.1881 14.1971ZM12.9375 2.44504L16.9239 4.40972L12.9375 6.37434V2.44504ZM19.4566 20.826C17.4802 21.6634 14.8321 22.1246 12 22.1246C9.16791 22.1246 6.51975 21.6634 4.54341 20.826C2.87255 20.118 1.875 19.2017 1.875 18.3747C1.875 17.5477 2.87255 16.6314 4.54341 15.9234C6.29991 15.1792 8.58722 14.7324 11.0625 14.6422V18.3624C11.0625 18.8802 11.4822 19.2999 12 19.2999C12.5178 19.2999 12.9375 18.8802 12.9375 18.3624V14.6422C15.4128 14.7325 17.7001 15.1792 19.4566 15.9234C21.1275 16.6314 22.125 17.5478 22.125 18.3747C22.125 19.2016 21.1275 20.118 19.4566 20.826Z" fill="white"/>
</svg>
